<svg version="1.2" xmlns="http://www.w3.org/2000/svg" viewBox="0 0 1280 1280" width="1000" height="1000"><style>.a{fill:none;stroke:#000;stroke-miterlimit:100;stroke-width:30}</style><path class="a" d="m1142.2 1256.5c-49.9-83.9-153-159.3-195.6-182.1-28.2-15.1-61.7 77-91.8 34.8-11.1-15.6-57.2-75.2-121.9-64.7-97.6 15.9-119.5 10.6-197.8 77-55.2 46.8-189-27.5-201.4-87.8-12.9-63.1 116.1-165.1 144.7-205.5 36.1-51 46.7-100.5 102.1-164.4 55.5-64 266.3-112.8 362.1-194.3 165.5-140.7 228.9-452 210-410.9-11.9 25.9-78.1 220-207.6 256-22.5 6.2-83.8 8.9-115-57.2-27.4-58.1-30.3-145.5-1.2-164.6 43.6-28.6 51.1 232 8.7 278.1-42.4 46.1-79.8 33.7-124.7 13.7-44.9-19.9-73.4-178.3-38.6-178.3 34.8 0 46.1 187-7.5 269.3-56.5 86.8-91.7 131.8-205.2 151.8-113.4 19.9-241.7-31.3-281.5-91-45.5-68.3 233.4 33.7 267.6 40.2 137.2 26.2 176.5 28.2 232.3 27.2 103-1.9 142.5-1.6 228.6-20.4 131.8-28.9 201.2-69.9 345.7-24"/><path class="a" d="m607.4 756.8c-56.1 43.8 6.2 116.1 59.3 77.9 48.8-35.1-2.3-122.3-59.3-77.9z"/><path class="a" d="m23 40.4c0-11.1 9-20.1 20.1-20.1h1193.7c11.1 0 20.1 9 20.1 20.1l0.1 1199.2c0 11.1-9 20.1-20.1 20.1l-1193.8-0.4c-11.1 0-20.1-9-20.1-20.2z"/></svg>